<?xml version="1.0" standalone="no"?>
<!DOCTYPE svg PUBLIC "-//W3C//DTD SVG 1.1//EN"
  "http://www.w3.org/Graphics/SVG/1.1/DTD/svg11.dtd">
<svg width="197mm" height="82.99999999999999mm" viewBox="-101 -21.999999999999996 197 82.99999999999999" xmlns="http://www.w3.org/2000/svg" version="1.1">
	<title>svgOutput</title>
	<desc>made with tinkercad</desc>
<path d="M 95 59.999999999999986 L 91.49800109863281 59.999999999999986 L 53.49800109863281 59.999999999999986 L 15.498000144958496 59.999999999999986 L -22.503000259399414 59.999999999999986 L -60.50299835205078 59.999999999999986 L -98.50299835205078 59.999999999999986 L -100 59.999999999999986 L -100 -20.999999999999996 L -98.50299835205078 -20.999999999999996 L -96.49800109863281 -20.999999999999996 L -60.50299835205078 -20.999999999999996 L -58.49800109863281 -20.999999999999996 L -22.503000259399414 -20.999999999999996 L -20.49799919128418 -20.999999999999996 L 15.498000144958496 -20.999999999999996 L 17.503000259399414 -20.999999999999996 L 53.49800109863281 -20.999999999999996 L 55.50299835205078 -20.999999999999996 L 91.49800109863281 -20.999999999999996 L 93.50299835205078 -20.999999999999996 L 95 -20.999999999999996 L 95 58.50299835205077 L 95 59.999999999999986 M 92.19000244140625 58.45299911499022 L 92.5 58.50299835205077 L 92.80999755859375 58.45299911499022 L 93.08899688720703 58.311000823974595 L 93.31099700927734 58.08900070190428 L 93.4530029296875 57.810001373291 L 93.50299835205078 57.499999999999986 L 93.47783660888672 57.34400177001952 L 93.4530029296875 57.18999862670897 L 93.31099700927734 56.91099929809569 L 93.08899688720703 56.688999176025376 L 92.80999755859375 56.54700088500975 L 92.5 56.4980010986328 L 92.19000244140625 56.54700088500975 L 91.91100311279297 56.688999176025376 L 91.68900299072266 56.91099929809569 L 91.5469970703125 57.18999862670897 L 91.52265930175781 57.34400177001952 L 91.49800109863281 57.499999999999986 L 91.5469970703125 57.810001373291 L 91.68900299072266 58.08900070190428 L 91.91100311279297 58.311000823974595 L 92.19000244140625 58.45299911499022 M 91.91100311279297 20.311000823974606 L 92.16000366210938 20.437730789184567 L 92.19000244140625 20.45299911499023 L 92.3573989868164 20.479999542236325 L 92.5 20.50300025939941 L 92.6426010131836 20.479999542236325 L 92.80999755859375 20.45299911499023 L 93.08899688720703 20.311000823974606 L 93.31099700927734 20.089000701904293 L 93.4530029296875 19.80999946594238 L 93.50299835205078 19.499999999999996 L 93.4530029296875 19.190000534057614 L 93.31099700927734 18.9109992980957 L 93.08899688720703 18.688999176025387 L 92.80999755859375 18.547000885009762 L 92.5 18.497999191284176 L 92.19000244140625 18.547000885009762 L 92.16000366210938 18.562269210815426 L 91.91100311279297 18.688999176025387 L 91.68900299072266 18.9109992980957 L 91.5469970703125 19.190000534057614 L 91.49800109863281 19.499999999999996 L 91.5469970703125 19.80999946594238 L 91.68900299072266 20.089000701904293 L 91.91100311279297 20.311000823974606 M 92.19000244140625 -17.547000885009762 L 92.5 -17.497999191284176 L 92.80999755859375 -17.547000885009762 L 93.08899688720703 -17.688999176025387 L 93.31099700927734 -17.9109992980957 L 93.4530029296875 -18.190000534057614 L 93.49203491210938 -18.431999206542965 L 93.50299835205078 -18.499999999999996 L 93.4530029296875 -18.80999946594238 L 93.31099700927734 -19.089000701904293 L 93.08899688720703 -19.311000823974606 L 92.80999755859375 -19.45299911499023 L 92.5 -19.50300025939941 L 92.19000244140625 -19.45299911499023 L 91.91100311279297 -19.311000823974606 L 91.68900299072266 -19.089000701904293 L 91.5469970703125 -18.80999946594238 L 91.49800109863281 -18.499999999999996 L 91.50875091552734 -18.431999206542965 L 91.5469970703125 -18.190000534057614 L 91.68900299072266 -17.9109992980957 L 91.91100311279297 -17.688999176025387 L 92.19000244140625 -17.547000885009762 M 54.189998626708984 58.45299911499022 L 54.5 58.50299835205077 L 54.810001373291016 58.45299911499022 L 55.0890007019043 58.311000823974595 L 55.31100082397461 58.08900070190428 L 55.452999114990234 57.810001373291 L 55.50299835205078 57.499999999999986 L 55.477840423583984 57.34400177001952 L 55.452999114990234 57.18999862670897 L 55.31100082397461 56.91099929809569 L 55.0890007019043 56.688999176025376 L 54.810001373291016 56.54700088500975 L 54.5 56.4980010986328 L 54.189998626708984 56.54700088500975 L 53.9109992980957 56.688999176025376 L 53.68899917602539 56.91099929809569 L 53.547000885009766 57.18999862670897 L 53.52265930175781 57.34400177001952 L 53.49800109863281 57.499999999999986 L 53.547000885009766 57.810001373291 L 53.68899917602539 58.08900070190428 L 53.9109992980957 58.311000823974595 L 54.189998626708984 58.45299911499022 M 54.189998626708984 20.45299911499023 L 54.357398986816406 20.479999542236325 L 54.5 20.50300025939941 L 54.642601013183594 20.479999542236325 L 54.810001373291016 20.45299911499023 L 55.0890007019043 20.311000823974606 L 55.29600143432617 20.10400009155273 L 55.31100082397461 20.089000701904293 L 55.452999114990234 19.80999946594238 L 55.50299835205078 19.499999999999996 L 55.452999114990234 19.190000534057614 L 55.31100082397461 18.9109992980957 L 55.29600143432617 18.895999908447262 L 55.0890007019043 18.688999176025387 L 54.810001373291016 18.547000885009762 L 54.5 18.497999191284176 L 54.189998626708984 18.547000885009762 L 53.9109992980957 18.688999176025387 L 53.68899917602539 18.9109992980957 L 53.547000885009766 19.190000534057614 L 53.50495529174805 19.455999374389645 L 53.49800109863281 19.499999999999996 L 53.547000885009766 19.80999946594238 L 53.68899917602539 20.089000701904293 L 53.9109992980957 20.311000823974606 L 54.189998626708984 20.45299911499023 M 54.189998626708984 -17.547000885009762 L 54.5 -17.497999191284176 L 54.810001373291016 -17.547000885009762 L 55.0890007019043 -17.688999176025387 L 55.31100082397461 -17.9109992980957 L 55.452999114990234 -18.190000534057614 L 55.49203109741211 -18.431999206542965 L 55.50299835205078 -18.499999999999996 L 55.452999114990234 -18.80999946594238 L 55.31100082397461 -19.089000701904293 L 55.0890007019043 -19.311000823974606 L 54.810001373291016 -19.45299911499023 L 54.5 -19.50300025939941 L 54.189998626708984 -19.45299911499023 L 53.9109992980957 -19.311000823974606 L 53.68899917602539 -19.089000701904293 L 53.547000885009766 -18.80999946594238 L 53.49800109863281 -18.499999999999996 L 53.50874710083008 -18.431999206542965 L 53.547000885009766 -18.190000534057614 L 53.68899917602539 -17.9109992980957 L 53.9109992980957 -17.688999176025387 L 54.189998626708984 -17.547000885009762 M 16.190000534057617 58.45299911499022 L 16.5 58.50299835205077 L 16.809999465942383 58.45299911499022 L 17.089000701904297 58.311000823974595 L 17.31100082397461 58.08900070190428 L 17.452999114990234 57.810001373291 L 17.503000259399414 57.499999999999986 L 17.47783851623535 57.34400177001952 L 17.452999114990234 57.18999862670897 L 17.31100082397461 56.91099929809569 L 17.089000701904297 56.688999176025376 L 16.809999465942383 56.54700088500975 L 16.5 56.4980010986328 L 16.190000534057617 56.54700088500975 L 15.91100025177002 56.688999176025376 L 15.689000129699707 56.91099929809569 L 15.54699993133545 57.18999862670897 L 15.522658348083496 57.34400177001952 L 15.498000144958496 57.499999999999986 L 15.54699993133545 57.810001373291 L 15.689000129699707 58.08900070190428 L 15.91100025177002 58.311000823974595 L 16.190000534057617 58.45299911499022 M 16.190000534057617 20.45299911499023 L 16.35740089416504 20.479999542236325 L 16.5 20.50300025939941 L 16.64259910583496 20.479999542236325 L 16.809999465942383 20.45299911499023 L 17.089000701904297 20.311000823974606 L 17.31100082397461 20.089000701904293 L 17.452999114990234 19.80999946594238 L 17.503000259399414 19.499999999999996 L 17.452999114990234 19.190000534057614 L 17.31100082397461 18.9109992980957 L 17.089000701904297 18.688999176025387 L 16.809999465942383 18.547000885009762 L 16.5 18.497999191284176 L 16.384000778198242 18.516334533691403 L 16.190000534057617 18.547000885009762 L 15.91100025177002 18.688999176025387 L 15.689000129699707 18.9109992980957 L 15.54699993133545 19.190000534057614 L 15.498000144958496 19.499999999999996 L 15.54699993133545 19.80999946594238 L 15.689000129699707 20.089000701904293 L 15.91100025177002 20.311000823974606 L 16.190000534057617 20.45299911499023 M 16.190000534057617 -17.547000885009762 L 16.5 -17.497999191284176 L 16.809999465942383 -17.547000885009762 L 17.089000701904297 -17.688999176025387 L 17.31100082397461 -17.9109992980957 L 17.452999114990234 -18.190000534057614 L 17.492033004760742 -18.431999206542965 L 17.503000259399414 -18.499999999999996 L 17.452999114990234 -18.80999946594238 L 17.31100082397461 -19.089000701904293 L 17.089000701904297 -19.311000823974606 L 16.809999465942383 -19.45299911499023 L 16.5 -19.50300025939941 L 16.190000534057617 -19.45299911499023 L 15.91100025177002 -19.311000823974606 L 15.689000129699707 -19.089000701904293 L 15.54699993133545 -18.80999946594238 L 15.498000144958496 -18.499999999999996 L 15.508748054504395 -18.431999206542965 L 15.54699993133545 -18.190000534057614 L 15.689000129699707 -17.9109992980957 L 15.91100025177002 -17.688999176025387 L 16.190000534057617 -17.547000885009762 M -21.809999465942383 58.45299911499022 L -21.5 58.50299835205077 L -21.190000534057617 58.45299911499022 L -20.910999298095703 58.311000823974595 L -20.68899917602539 58.08900070190428 L -20.547000885009766 57.810001373291 L -20.49799919128418 57.499999999999986 L -20.52265739440918 57.34400177001952 L -20.547000885009766 57.18999862670897 L -20.68899917602539 56.91099929809569 L -20.910999298095703 56.688999176025376 L -21.190000534057617 56.54700088500975 L -21.5 56.4980010986328 L -21.809999465942383 56.54700088500975 L -22.089000701904297 56.688999176025376 L -22.31100082397461 56.91099929809569 L -22.452999114990234 57.18999862670897 L -22.47783851623535 57.34400177001952 L -22.503000259399414 57.499999999999986 L -22.452999114990234 57.810001373291 L -22.31100082397461 58.08900070190428 L -22.089000701904297 58.311000823974595 L -21.809999465942383 58.45299911499022 M -21.809999465942383 20.45299911499023 L -21.64259910583496 20.479999542236325 L -21.5 20.50300025939941 L -21.35740089416504 20.479999542236325 L -21.190000534057617 20.45299911499023 L -20.910999298095703 20.311000823974606 L -20.68899917602539 20.089000701904293 L -20.547000885009766 19.80999946594238 L -20.49799919128418 19.499999999999996 L -20.547000885009766 19.190000534057614 L -20.68899917602539 18.9109992980957 L -20.910999298095703 18.688999176025387 L -21.190000534057617 18.547000885009762 L -21.5 18.497999191284176 L -21.503999710083008 18.49863243103027 L -21.809999465942383 18.547000885009762 L -22.089000701904297 18.688999176025387 L -22.31100082397461 18.9109992980957 L -22.452999114990234 19.190000534057614 L -22.503000259399414 19.499999999999996 L -22.452999114990234 19.80999946594238 L -22.31100082397461 20.089000701904293 L -22.089000701904297 20.311000823974606 L -21.809999465942383 20.45299911499023 M -21.809999465942383 -17.547000885009762 L -21.5 -17.497999191284176 L -21.190000534057617 -17.547000885009762 L -20.910999298095703 -17.688999176025387 L -20.68899917602539 -17.9109992980957 L -20.547000885009766 -18.190000534057614 L -20.50874900817871 -18.431999206542965 L -20.49799919128418 -18.499999999999996 L -20.547000885009766 -18.80999946594238 L -20.68899917602539 -19.089000701904293 L -20.910999298095703 -19.311000823974606 L -21.190000534057617 -19.45299911499023 L -21.5 -19.50300025939941 L -21.809999465942383 -19.45299911499023 L -22.089000701904297 -19.311000823974606 L -22.31100082397461 -19.089000701904293 L -22.452999114990234 -18.80999946594238 L -22.503000259399414 -18.499999999999996 L -22.492033004760742 -18.431999206542965 L -22.452999114990234 -18.190000534057614 L -22.31100082397461 -17.9109992980957 L -22.089000701904297 -17.688999176025387 L -21.809999465942383 -17.547000885009762 M -59.810001373291016 58.45299911499022 L -59.5 58.50299835205077 L -59.189998626708984 58.45299911499022 L -58.9109992980957 58.311000823974595 L -58.68899917602539 58.08900070190428 L -58.547000885009766 57.810001373291 L -58.49800109863281 57.499999999999986 L -58.52265930175781 57.34400177001952 L -58.547000885009766 57.18999862670897 L -58.68899917602539 56.91099929809569 L -58.9109992980957 56.688999176025376 L -59.189998626708984 56.54700088500975 L -59.5 56.4980010986328 L -59.810001373291016 56.54700088500975 L -60.0890007019043 56.688999176025376 L -60.31100082397461 56.91099929809569 L -60.452999114990234 57.18999862670897 L -60.477840423583984 57.34400177001952 L -60.50299835205078 57.499999999999986 L -60.452999114990234 57.810001373291 L -60.31100082397461 58.08900070190428 L -60.0890007019043 58.311000823974595 L -59.810001373291016 58.45299911499022 M -59.810001373291016 20.45299911499023 L -59.642601013183594 20.479999542236325 L -59.5 20.50300025939941 L -59.357398986816406 20.479999542236325 L -59.189998626708984 20.45299911499023 L -58.9109992980957 20.311000823974606 L -58.68899917602539 20.089000701904293 L -58.547000885009766 19.80999946594238 L -58.49800109863281 19.499999999999996 L -58.547000885009766 19.190000534057614 L -58.68899917602539 18.9109992980957 L -58.9109992980957 18.688999176025387 L -59.189998626708984 18.547000885009762 L -59.391998291015625 18.51507186889648 L -59.5 18.497999191284176 L -59.810001373291016 18.547000885009762 L -60.0890007019043 18.688999176025387 L -60.31100082397461 18.9109992980957 L -60.452999114990234 19.190000534057614 L -60.50299835205078 19.499999999999996 L -60.452999114990234 19.80999946594238 L -60.31100082397461 20.089000701904293 L -60.0890007019043 20.311000823974606 L -59.810001373291016 20.45299911499023 M -59.810001373291016 -17.547000885009762 L -59.5 -17.497999191284176 L -59.189998626708984 -17.547000885009762 L -58.9109992980957 -17.688999176025387 L -58.68899917602539 -17.9109992980957 L -58.547000885009766 -18.190000534057614 L -58.50874710083008 -18.431999206542965 L -58.49800109863281 -18.499999999999996 L -58.547000885009766 -18.80999946594238 L -58.68899917602539 -19.089000701904293 L -58.9109992980957 -19.311000823974606 L -59.189998626708984 -19.45299911499023 L -59.5 -19.50300025939941 L -59.810001373291016 -19.45299911499023 L -60.0890007019043 -19.311000823974606 L -60.31100082397461 -19.089000701904293 L -60.452999114990234 -18.80999946594238 L -60.50299835205078 -18.499999999999996 L -60.49203109741211 -18.431999206542965 L -60.452999114990234 -18.190000534057614 L -60.31100082397461 -17.9109992980957 L -60.0890007019043 -17.688999176025387 L -59.810001373291016 -17.547000885009762 M -97.80999755859375 58.45299911499022 L -97.5 58.50299835205077 L -97.19000244140625 58.45299911499022 L -96.91100311279297 58.311000823974595 L -96.68900299072266 58.08900070190428 L -96.5469970703125 57.810001373291 L -96.49800109863281 57.499999999999986 L -96.52265930175781 57.34400177001952 L -96.5469970703125 57.18999862670897 L -96.68900299072266 56.91099929809569 L -96.91100311279297 56.688999176025376 L -97.19000244140625 56.54700088500975 L -97.5 56.4980010986328 L -97.80999755859375 56.54700088500975 L -98.08899688720703 56.688999176025376 L -98.31099700927734 56.91099929809569 L -98.4530029296875 57.18999862670897 L -98.47783660888672 57.34400177001952 L -98.50299835205078 57.499999999999986 L -98.4530029296875 57.810001373291 L -98.31099700927734 58.08900070190428 L -98.08899688720703 58.311000823974595 L -97.80999755859375 58.45299911499022 M -98.31099700927734 20.089000701904293 L -98.30400085449219 20.096000671386715 L -98.08899688720703 20.311000823974606 L -97.80999755859375 20.45299911499023 L -97.6426010131836 20.479999542236325 L -97.5 20.50300025939941 L -97.3573989868164 20.479999542236325 L -97.19000244140625 20.45299911499023 L -96.91100311279297 20.311000823974606 L -96.68900299072266 20.089000701904293 L -96.5469970703125 19.80999946594238 L -96.49800109863281 19.499999999999996 L -96.50495147705078 19.455999374389645 L -96.5469970703125 19.190000534057614 L -96.68900299072266 18.9109992980957 L -96.91100311279297 18.688999176025387 L -97.19000244140625 18.547000885009762 L -97.5 18.497999191284176 L -97.80999755859375 18.547000885009762 L -98.08899688720703 18.688999176025387 L -98.30400085449219 18.903999328613278 L -98.31099700927734 18.9109992980957 L -98.4530029296875 19.190000534057614 L -98.50299835205078 19.499999999999996 L -98.4530029296875 19.80999946594238 L -98.31099700927734 20.089000701904293 M -97.80999755859375 -17.547000885009762 L -97.5 -17.497999191284176 L -97.19000244140625 -17.547000885009762 L -96.91100311279297 -17.688999176025387 L -96.68900299072266 -17.9109992980957 L -96.5469970703125 -18.190000534057614 L -96.50875091552734 -18.431999206542965 L -96.49800109863281 -18.499999999999996 L -96.5469970703125 -18.80999946594238 L -96.68900299072266 -19.089000701904293 L -96.91100311279297 -19.311000823974606 L -97.19000244140625 -19.45299911499023 L -97.5 -19.50300025939941 L -97.80999755859375 -19.45299911499023 L -98.08899688720703 -19.311000823974606 L -98.31099700927734 -19.089000701904293 L -98.4530029296875 -18.80999946594238 L -98.50299835205078 -18.499999999999996 L -98.49203491210938 -18.431999206542965 L -98.4530029296875 -18.190000534057614 L -98.31099700927734 -17.9109992980957 L -98.08899688720703 -17.688999176025387 L -97.80999755859375 -17.547000885009762 z" fill="none" stroke="rgb(255,0,0)" stroke-width="0.001mm" />
</svg>