<?xml version="1.0" standalone="no"?>
<!DOCTYPE svg PUBLIC "-//W3C//DTD SVG 1.1//EN"
  "http://www.w3.org/Graphics/SVG/1.1/DTD/svg11.dtd">
<svg width="186mm" height="73.99999999999997mm" viewBox="-101 -98.99999999999997 186 73.99999999999997" xmlns="http://www.w3.org/2000/svg" version="1.1">
	<title>svgOutput</title>
	<desc>made with tinkercad</desc>
<path d="M 84 -25.999999999999993 L 44.99800109863281 -25.999999999999993 L -63.00299835205078 -25.999999999999993 L -99.00299835205078 -25.999999999999993 L -100 -25.999999999999993 L -100 -97.99999999999997 L -99.00299835205078 -97.99999999999997 L -96.99800109863281 -97.99999999999997 L -63.00299835205078 -97.99999999999997 L -60.99800109863281 -97.99999999999997 L -27.003000259399414 -97.99999999999997 L -24.99799919128418 -97.99999999999997 L 8.998000144958496 -97.99999999999997 L 11.003000259399414 -97.99999999999997 L 44.99800109863281 -97.99999999999997 L 47.00299835205078 -97.99999999999997 L 80.99800109863281 -97.99999999999997 L 83.00299835205078 -97.99999999999997 L 84 -97.99999999999997 L 84 -94.9980010986328 L 84 -60.9980010986328 L 84 -26.997999191284173 L 84 -25.999999999999993 M 45.689998626708984 -95.04699707031249 L 46 -94.9980010986328 L 46.310001373291016 -95.04699707031249 L 46.5890007019043 -95.18900299072264 L 46.81100082397461 -95.41100311279295 L 46.952999114990234 -95.69000244140624 L 47.00299835205078 -95.99999999999997 L 46.961708068847656 -96.25599670410153 L 46.952999114990234 -96.30999755859372 L 46.81100082397461 -96.588996887207 L 46.5890007019043 -96.81099700927732 L 46.310001373291016 -96.95300292968747 L 46 -97.00299835205075 L 45.689998626708984 -96.95300292968747 L 45.4109992980957 -96.81099700927732 L 45.18899917602539 -96.588996887207 L 45.047000885009766 -96.30999755859372 L 45.0384635925293 -96.25599670410153 L 44.99800109863281 -95.99999999999997 L 45.047000885009766 -95.69000244140624 L 45.18899917602539 -95.41100311279295 L 45.4109992980957 -95.18900299072264 L 45.689998626708984 -95.04699707031249 M 81.69000244140625 -95.04699707031249 L 82 -94.9980010986328 L 82.30999755859375 -95.04699707031249 L 82.58899688720703 -95.18900299072264 L 82.81099700927734 -95.41100311279295 L 82.9530029296875 -95.69000244140624 L 83.00299835205078 -95.99999999999997 L 82.96170806884766 -96.25599670410153 L 82.9530029296875 -96.30999755859372 L 82.81099700927734 -96.588996887207 L 82.58899688720703 -96.81099700927732 L 82.30999755859375 -96.95300292968747 L 82 -97.00299835205075 L 81.69000244140625 -96.95300292968747 L 81.41100311279297 -96.81099700927732 L 81.18900299072266 -96.588996887207 L 81.0469970703125 -96.30999755859372 L 81.03846740722656 -96.25599670410153 L 80.99800109863281 -95.99999999999997 L 81.0469970703125 -95.69000244140624 L 81.18900299072266 -95.41100311279295 L 81.41100311279297 -95.18900299072264 L 81.69000244140625 -95.04699707031249 M 45.689998626708984 -61.04700088500975 L 46 -60.9980010986328 L 46.310001373291016 -61.04700088500975 L 46.5890007019043 -61.188999176025376 L 46.81100082397461 -61.41099929809569 L 46.82575988769531 -61.43999862670897 L 46.952999114990234 -61.68999862670897 L 47.00299835205078 -61.999999999999986 L 46.952999114990234 -62.310001373291 L 46.81100082397461 -62.58900070190428 L 46.5890007019043 -62.811000823974595 L 46.310001373291016 -62.95299911499022 L 46 -63.00299835205077 L 45.689998626708984 -62.95299911499022 L 45.4109992980957 -62.811000823974595 L 45.18899917602539 -62.58900070190428 L 45.047000885009766 -62.310001373291 L 44.99800109863281 -61.999999999999986 L 45.047000885009766 -61.68999862670897 L 45.17424011230469 -61.43999862670897 L 45.18899917602539 -61.41099929809569 L 45.4109992980957 -61.188999176025376 L 45.689998626708984 -61.04700088500975 M 81.69000244140625 -61.04700088500975 L 82 -60.9980010986328 L 82.30999755859375 -61.04700088500975 L 82.58899688720703 -61.188999176025376 L 82.81099700927734 -61.41099929809569 L 82.82575988769531 -61.43999862670897 L 82.9530029296875 -61.68999862670897 L 83.00299835205078 -61.999999999999986 L 82.9530029296875 -62.310001373291 L 82.81099700927734 -62.58900070190428 L 82.58899688720703 -62.811000823974595 L 82.30999755859375 -62.95299911499022 L 82 -63.00299835205077 L 81.69000244140625 -62.95299911499022 L 81.41100311279297 -62.811000823974595 L 81.18900299072266 -62.58900070190428 L 81.0469970703125 -62.310001373291 L 80.99800109863281 -61.999999999999986 L 81.0469970703125 -61.68999862670897 L 81.17424011230469 -61.43999862670897 L 81.18900299072266 -61.41099929809569 L 81.41100311279297 -61.188999176025376 L 81.69000244140625 -61.04700088500975 M 45.047000885009766 -28.309999465942376 L 44.99800109863281 -27.999999999999993 L 45.047000885009766 -27.69000053405761 L 45.055999755859375 -27.672317504882805 L 45.18899917602539 -27.410999298095696 L 45.4109992980957 -27.188999176025384 L 45.689998626708984 -27.04700088500976 L 46 -26.997999191284173 L 46.310001373291016 -27.04700088500976 L 46.5890007019043 -27.188999176025384 L 46.81100082397461 -27.410999298095696 L 46.952999114990234 -27.69000053405761 L 47.00299835205078 -27.999999999999993 L 46.952999114990234 -28.309999465942376 L 46.81100082397461 -28.58900070190429 L 46.72800064086914 -28.67200088500976 L 46.5890007019043 -28.811000823974602 L 46.310001373291016 -28.952999114990227 L 46 -29.003000259399407 L 45.689998626708984 -28.952999114990227 L 45.4109992980957 -28.811000823974602 L 45.27199935913086 -28.67200088500976 L 45.18899917602539 -28.58900070190429 L 45.055999755859375 -28.32768249511718 L 45.047000885009766 -28.309999465942376 M 81.91999816894531 -27.01064491271972 L 82 -26.997999191284173 L 82.30999755859375 -27.04700088500976 L 82.58899688720703 -27.188999176025384 L 82.81099700927734 -27.410999298095696 L 82.9530029296875 -27.69000053405761 L 83.00299835205078 -27.999999999999993 L 82.9530029296875 -28.309999465942376 L 82.81099700927734 -28.58900070190429 L 82.72799682617188 -28.67200088500976 L 82.58899688720703 -28.811000823974602 L 82.30999755859375 -28.952999114990227 L 82 -29.003000259399407 L 81.69000244140625 -28.952999114990227 L 81.41100311279297 -28.811000823974602 L 81.27200317382812 -28.67200088500976 L 81.18900299072266 -28.58900070190429 L 81.0469970703125 -28.309999465942376 L 80.99800109863281 -27.999999999999993 L 81.0469970703125 -27.69000053405761 L 81.18900299072266 -27.410999298095696 L 81.41100311279297 -27.188999176025384 L 81.69000244140625 -27.04700088500976 L 81.91999816894531 -27.01064491271972 M -62.310001373291016 -95.04699707031249 L -62 -94.9980010986328 L -61.689998626708984 -95.04699707031249 L -61.4109992980957 -95.18900299072264 L -61.18899917602539 -95.41100311279295 L -61.047000885009766 -95.69000244140624 L -60.99800109863281 -95.99999999999997 L -61.0384635925293 -96.25599670410153 L -61.047000885009766 -96.30999755859372 L -61.18899917602539 -96.588996887207 L -61.4109992980957 -96.81099700927732 L -61.689998626708984 -96.95300292968747 L -62 -97.00299835205075 L -62.310001373291016 -96.95300292968747 L -62.5890007019043 -96.81099700927732 L -62.81100082397461 -96.588996887207 L -62.952999114990234 -96.30999755859372 L -62.961708068847656 -96.25599670410153 L -63.00299835205078 -95.99999999999997 L -62.952999114990234 -95.69000244140624 L -62.81100082397461 -95.41100311279295 L -62.5890007019043 -95.18900299072264 L -62.310001373291016 -95.04699707031249 M 9.6899995803833 -95.04699707031249 L 10 -94.9980010986328 L 10.3100004196167 -95.04699707031249 L 10.58899974822998 -95.18900299072264 L 10.810999870300293 -95.41100311279295 L 10.95300006866455 -95.69000244140624 L 11.003000259399414 -95.99999999999997 L 10.961709976196289 -96.25599670410153 L 10.95300006866455 -96.30999755859372 L 10.810999870300293 -96.588996887207 L 10.58899974822998 -96.81099700927732 L 10.3100004196167 -96.95300292968747 L 10 -97.00299835205075 L 9.6899995803833 -96.95300292968747 L 9.41100025177002 -96.81099700927732 L 9.189000129699707 -96.588996887207 L 9.04699993133545 -96.30999755859372 L 9.038464546203613 -96.25599670410153 L 8.998000144958496 -95.99999999999997 L 9.04699993133545 -95.69000244140624 L 9.189000129699707 -95.41100311279295 L 9.41100025177002 -95.18900299072264 L 9.6899995803833 -95.04699707031249 M -26.309999465942383 -95.04699707031249 L -26 -94.9980010986328 L -25.690000534057617 -95.04699707031249 L -25.410999298095703 -95.18900299072264 L -25.18899917602539 -95.41100311279295 L -25.047000885009766 -95.69000244140624 L -24.99799919128418 -95.99999999999997 L -25.038463592529297 -96.25599670410153 L -25.047000885009766 -96.30999755859372 L -25.18899917602539 -96.588996887207 L -25.410999298095703 -96.81099700927732 L -25.690000534057617 -96.95300292968747 L -26 -97.00299835205075 L -26.309999465942383 -96.95300292968747 L -26.589000701904297 -96.81099700927732 L -26.81100082397461 -96.588996887207 L -26.952999114990234 -96.30999755859372 L -26.96170997619629 -96.25599670410153 L -27.003000259399414 -95.99999999999997 L -26.952999114990234 -95.69000244140624 L -26.81100082397461 -95.41100311279295 L -26.589000701904297 -95.18900299072264 L -26.309999465942383 -95.04699707031249 M -62.310001373291016 -27.04700088500976 L -62 -26.997999191284173 L -61.689998626708984 -27.04700088500976 L -61.439998626708984 -27.17424011230468 L -61.4109992980957 -27.188999176025384 L -61.18899917602539 -27.410999298095696 L -61.047000885009766 -27.69000053405761 L -60.99800109863281 -27.999999999999993 L -61.047000885009766 -28.309999465942376 L -61.18899917602539 -28.58900070190429 L -61.27199935913086 -28.67200088500976 L -61.4109992980957 -28.811000823974602 L -61.689998626708984 -28.952999114990227 L -62 -29.003000259399407 L -62.310001373291016 -28.952999114990227 L -62.5890007019043 -28.811000823974602 L -62.72800064086914 -28.67200088500976 L -62.81100082397461 -28.58900070190429 L -62.952999114990234 -28.309999465942376 L -63.00299835205078 -27.999999999999993 L -62.952999114990234 -27.69000053405761 L -62.81100082397461 -27.410999298095696 L -62.5890007019043 -27.188999176025384 L -62.310001373291016 -27.04700088500976 M -62.310001373291016 -61.04700088500975 L -62 -60.9980010986328 L -61.689998626708984 -61.04700088500975 L -61.4109992980957 -61.188999176025376 L -61.18899917602539 -61.41099929809569 L -61.17424011230469 -61.43999862670897 L -61.047000885009766 -61.68999862670897 L -60.99800109863281 -61.999999999999986 L -61.047000885009766 -62.310001373291 L -61.18899917602539 -62.58900070190428 L -61.4109992980957 -62.811000823974595 L -61.689998626708984 -62.95299911499022 L -62 -63.00299835205077 L -62.310001373291016 -62.95299911499022 L -62.5890007019043 -62.811000823974595 L -62.81100082397461 -62.58900070190428 L -62.952999114990234 -62.310001373291 L -63.00299835205078 -61.999999999999986 L -62.952999114990234 -61.68999862670897 L -62.82575988769531 -61.43999862670897 L -62.81100082397461 -61.41099929809569 L -62.5890007019043 -61.188999176025376 L -62.310001373291016 -61.04700088500975 M -26.309999465942383 -61.04700088500975 L -26 -60.9980010986328 L -25.690000534057617 -61.04700088500975 L -25.410999298095703 -61.188999176025376 L -25.18899917602539 -61.41099929809569 L -25.174240112304688 -61.43999862670897 L -25.047000885009766 -61.68999862670897 L -24.99799919128418 -61.999999999999986 L -25.047000885009766 -62.310001373291 L -25.18899917602539 -62.58900070190428 L -25.410999298095703 -62.811000823974595 L -25.690000534057617 -62.95299911499022 L -26 -63.00299835205077 L -26.309999465942383 -62.95299911499022 L -26.589000701904297 -62.811000823974595 L -26.81100082397461 -62.58900070190428 L -26.952999114990234 -62.310001373291 L -27.003000259399414 -61.999999999999986 L -26.952999114990234 -61.68999862670897 L -26.825759887695312 -61.43999862670897 L -26.81100082397461 -61.41099929809569 L -26.589000701904297 -61.188999176025376 L -26.309999465942383 -61.04700088500975 M 9.6899995803833 -61.04700088500975 L 10 -60.9980010986328 L 10.3100004196167 -61.04700088500975 L 10.58899974822998 -61.188999176025376 L 10.810999870300293 -61.41099929809569 L 10.825759887695312 -61.43999862670897 L 10.95300006866455 -61.68999862670897 L 11.003000259399414 -61.999999999999986 L 10.95300006866455 -62.310001373291 L 10.810999870300293 -62.58900070190428 L 10.58899974822998 -62.811000823974595 L 10.3100004196167 -62.95299911499022 L 10 -63.00299835205077 L 9.6899995803833 -62.95299911499022 L 9.41100025177002 -62.811000823974595 L 9.189000129699707 -62.58900070190428 L 9.04699993133545 -62.310001373291 L 8.998000144958496 -61.999999999999986 L 9.04699993133545 -61.68999862670897 L 9.174240112304688 -61.43999862670897 L 9.189000129699707 -61.41099929809569 L 9.41100025177002 -61.188999176025376 L 9.6899995803833 -61.04700088500975 M 9.6899995803833 -27.04700088500976 L 10 -26.997999191284173 L 10.239999771118164 -27.035936355590813 L 10.3100004196167 -27.04700088500976 L 10.58899974822998 -27.188999176025384 L 10.810999870300293 -27.410999298095696 L 10.95300006866455 -27.69000053405761 L 11.003000259399414 -27.999999999999993 L 10.95300006866455 -28.309999465942376 L 10.810999870300293 -28.58900070190429 L 10.727999687194824 -28.67200088500976 L 10.58899974822998 -28.811000823974602 L 10.3100004196167 -28.952999114990227 L 10 -29.003000259399407 L 9.6899995803833 -28.952999114990227 L 9.41100025177002 -28.811000823974602 L 9.272000312805176 -28.67200088500976 L 9.189000129699707 -28.58900070190429 L 9.04699993133545 -28.309999465942376 L 8.998000144958496 -27.999999999999993 L 9.04699993133545 -27.69000053405761 L 9.189000129699707 -27.410999298095696 L 9.41100025177002 -27.188999176025384 L 9.6899995803833 -27.04700088500976 M -26.952999114990234 -28.309999465942376 L -27.003000259399414 -27.999999999999993 L -26.952999114990234 -27.69000053405761 L -26.81100082397461 -27.410999298095696 L -26.624000549316406 -27.224000930786126 L -26.589000701904297 -27.188999176025384 L -26.309999465942383 -27.04700088500976 L -26 -26.997999191284173 L -25.690000534057617 -27.04700088500976 L -25.410999298095703 -27.188999176025384 L -25.18899917602539 -27.410999298095696 L -25.047000885009766 -27.69000053405761 L -24.99799919128418 -27.999999999999993 L -25.047000885009766 -28.309999465942376 L -25.18899917602539 -28.58900070190429 L -25.27199935913086 -28.67200088500976 L -25.410999298095703 -28.811000823974602 L -25.690000534057617 -28.952999114990227 L -26 -29.003000259399407 L -26.309999465942383 -28.952999114990227 L -26.589000701904297 -28.811000823974602 L -26.72800064086914 -28.67200088500976 L -26.81100082397461 -28.58900070190429 L -26.952999114990234 -28.309999465942376 M -98.30999755859375 -61.04700088500975 L -98 -60.9980010986328 L -97.69000244140625 -61.04700088500975 L -97.41100311279297 -61.188999176025376 L -97.18900299072266 -61.41099929809569 L -97.17424011230469 -61.43999862670897 L -97.0469970703125 -61.68999862670897 L -96.99800109863281 -61.999999999999986 L -97.0469970703125 -62.310001373291 L -97.18900299072266 -62.58900070190428 L -97.41100311279297 -62.811000823974595 L -97.69000244140625 -62.95299911499022 L -98 -63.00299835205077 L -98.30999755859375 -62.95299911499022 L -98.58899688720703 -62.811000823974595 L -98.81099700927734 -62.58900070190428 L -98.9530029296875 -62.310001373291 L -99.00299835205078 -61.999999999999986 L -98.9530029296875 -61.68999862670897 L -98.82575988769531 -61.43999862670897 L -98.81099700927734 -61.41099929809569 L -98.58899688720703 -61.188999176025376 L -98.30999755859375 -61.04700088500975 M -98.30999755859375 -95.04699707031249 L -98 -94.9980010986328 L -97.69000244140625 -95.04699707031249 L -97.41100311279297 -95.18900299072264 L -97.18900299072266 -95.41100311279295 L -97.0469970703125 -95.69000244140624 L -96.99800109863281 -95.99999999999997 L -97.03846740722656 -96.25599670410153 L -97.0469970703125 -96.30999755859372 L -97.18900299072266 -96.588996887207 L -97.41100311279297 -96.81099700927732 L -97.69000244140625 -96.95300292968747 L -98 -97.00299835205075 L -98.30999755859375 -96.95300292968747 L -98.58899688720703 -96.81099700927732 L -98.81099700927734 -96.588996887207 L -98.9530029296875 -96.30999755859372 L -98.96170806884766 -96.25599670410153 L -99.00299835205078 -95.99999999999997 L -98.9530029296875 -95.69000244140624 L -98.81099700927734 -95.41100311279295 L -98.58899688720703 -95.18900299072264 L -98.30999755859375 -95.04699707031249 M -98.30400085449219 -27.046051025390618 L -98 -26.997999191284173 L -97.69000244140625 -27.04700088500976 L -97.41100311279297 -27.188999176025384 L -97.18900299072266 -27.410999298095696 L -97.0469970703125 -27.69000053405761 L -96.99800109863281 -27.999999999999993 L -97.0469970703125 -28.309999465942376 L -97.18900299072266 -28.58900070190429 L -97.27200317382812 -28.67200088500976 L -97.41100311279297 -28.811000823974602 L -97.69000244140625 -28.952999114990227 L -98 -29.003000259399407 L -98.30999755859375 -28.952999114990227 L -98.58899688720703 -28.811000823974602 L -98.72799682617188 -28.67200088500976 L -98.81099700927734 -28.58900070190429 L -98.9530029296875 -28.309999465942376 L -99.00299835205078 -27.999999999999993 L -98.9530029296875 -27.69000053405761 L -98.81099700927734 -27.410999298095696 L -98.58899688720703 -27.188999176025384 L -98.30999755859375 -27.04700088500976 L -98.30400085449219 -27.046051025390618 z" fill="none" stroke="rgb(255,0,0)" stroke-width="0.001mm" />
</svg>